<svg id="visual" viewBox="0 0 960 540" width="960" height="540" xmlns="http://www.w3.org/2000/svg" xmlns:xlink="http://www.w3.org/1999/xlink" version="1.1"><path d="M0 461L26.7 455.3C53.3 449.7 106.7 438.3 160 430C213.3 421.7 266.7 416.3 320 418.7C373.3 421 426.7 431 480 437.3C533.3 443.7 586.7 446.3 640 444.7C693.3 443 746.7 437 800 425.3C853.3 413.7 906.7 396.3 933.3 387.7L960 379L960 541L933.3 541C906.7 541 853.3 541 800 541C746.7 541 693.3 541 640 541C586.7 541 533.3 541 480 541C426.7 541 373.3 541 320 541C266.7 541 213.3 541 160 541C106.7 541 53.3 541 26.7 541L0 541Z" fill="#0066FF" stroke-linecap="round" stroke-linejoin="miter"></path></svg>