<svg id="visual" viewBox="0 0 960 540" width="960" height="540" xmlns="http://www.w3.org/2000/svg" xmlns:xlink="http://www.w3.org/1999/xlink" version="1.1"><rect x="0" y="0" width="960" height="540" fill="#ffffff"></rect><defs><linearGradient id="grad1_0" x1="43.8%" y1="100%" x2="100%" y2="0%"><stop offset="14.444444444444446%" stop-color="#ffffff" stop-opacity="1"></stop><stop offset="85.55555555555554%" stop-color="#ffffff" stop-opacity="1"></stop></linearGradient></defs><defs><linearGradient id="grad2_0" x1="0%" y1="100%" x2="56.3%" y2="0%"><stop offset="14.444444444444446%" stop-color="#ffffff" stop-opacity="1"></stop><stop offset="85.55555555555554%" stop-color="#ffffff" stop-opacity="1"></stop></linearGradient></defs><g transform="translate(960, 540)"><path d="M-324 0C-321.4 -33.7 -318.8 -67.5 -308.1 -100.1C-297.5 -132.8 -278.7 -164.4 -252.4 -183.4C-226.1 -202.4 -192.1 -208.8 -166.9 -229.8C-141.7 -250.7 -125.3 -286.2 -98.9 -304.3C-72.5 -322.5 -36.3 -323.2 0 -324L0 0Z" fill="#13110f"></path></g><g transform="translate(0, 0)"><path d="M324 0C323.2 36.1 322.3 72.1 306.2 99.5C290.2 126.9 258.8 145.7 239.5 174C220.1 202.3 212.7 240.2 190.4 262.1C168.2 284.1 130.9 290 96.7 297.7C62.5 305.3 31.2 314.7 0 324L0 0Z" fill="#13110f"></path></g></svg>