<svg id="visual" viewBox="0 0 900 600" width="900" height="600" xmlns="http://www.w3.org/2000/svg" xmlns:xlink="http://www.w3.org/1999/xlink" version="1.1"><rect x="0" y="0" width="900" height="600" fill="#ffffff"></rect><defs><linearGradient id="grad1_0" x1="33.3%" y1="100%" x2="100%" y2="0%"><stop offset="20%" stop-color="#ffffff" stop-opacity="1"></stop><stop offset="80%" stop-color="#ffffff" stop-opacity="1"></stop></linearGradient></defs><defs><linearGradient id="grad2_0" x1="0%" y1="100%" x2="66.7%" y2="0%"><stop offset="20%" stop-color="#ffffff" stop-opacity="1"></stop><stop offset="80%" stop-color="#ffffff" stop-opacity="1"></stop></linearGradient></defs><g transform="translate(900, 600)"><path d="M-324.5 0C-324.4 -36.3 -324.2 -72.5 -308.6 -100.3C-293 -128 -261.9 -147.2 -241.9 -175.7C-221.9 -204.3 -213.1 -242.1 -189.3 -260.5C-165.5 -278.9 -126.7 -277.9 -92.7 -285.3C-58.7 -292.7 -29.3 -308.6 0 -324.5L0 0Z" fill="#13110f"></path></g><g transform="translate(0, 0)"><path d="M324.5 0C317.5 32.5 310.6 65 299.6 97.3C288.6 129.7 273.6 161.8 249.2 181C224.8 200.2 190.9 206.5 166.3 229C141.8 251.4 126.5 290 100.3 308.6C74.1 327.2 37 325.9 0 324.5L0 0Z" fill="#13110f"></path></g></svg>